<mxfile host="app.diagrams.net" agent="Mozilla/5.0 (X11; Linux x86_64) AppleWebKit/537.36 (KHTML, like Gecko) Chrome/124.0.0.0 Safari/537.36" version="25.0.1">
  <diagram name="PÃ¡gina-1" id="BxX0nzFmQJl6e2q6VrrE">
    <mxGraphModel dx="503" dy="265" grid="1" gridSize="10" guides="1" tooltips="1" connect="1" arrows="1" fold="1" page="1" pageScale="1" pageWidth="827" pageHeight="1169" math="0" shadow="0">
      <root>
        <mxCell id="0" />
        <mxCell id="1" parent="0" />
        <mxCell id="9RzZbeZzAyRBjFit2fkM-1" value="&lt;b&gt;PORTAFOLIOS&lt;/b&gt;" style="rounded=0;whiteSpace=wrap;html=1;" vertex="1" parent="1">
          <mxGeometry x="316" y="50" width="196" height="90" as="geometry" />
        </mxCell>
        <mxCell id="9RzZbeZzAyRBjFit2fkM-2" value="" style="endArrow=none;html=1;rounded=0;entryX=0.5;entryY=1;entryDx=0;entryDy=0;exitX=0.5;exitY=0;exitDx=0;exitDy=0;" edge="1" parent="1" source="9RzZbeZzAyRBjFit2fkM-4" target="9RzZbeZzAyRBjFit2fkM-1">
          <mxGeometry width="50" height="50" relative="1" as="geometry">
            <mxPoint x="414" y="240" as="sourcePoint" />
            <mxPoint x="460" y="260" as="targetPoint" />
          </mxGeometry>
        </mxCell>
        <mxCell id="9RzZbeZzAyRBjFit2fkM-3" value="&lt;b&gt;proyectos&lt;/b&gt;" style="rounded=0;whiteSpace=wrap;html=1;" vertex="1" parent="1">
          <mxGeometry x="120" y="320" width="160" height="50" as="geometry" />
        </mxCell>
        <mxCell id="9RzZbeZzAyRBjFit2fkM-4" value="&lt;b&gt;formacion&lt;/b&gt;" style="rounded=0;whiteSpace=wrap;html=1;" vertex="1" parent="1">
          <mxGeometry x="334" y="320" width="160" height="50" as="geometry" />
        </mxCell>
        <mxCell id="9RzZbeZzAyRBjFit2fkM-5" value="&lt;b&gt;tecnologias&lt;/b&gt;" style="rounded=0;whiteSpace=wrap;html=1;" vertex="1" parent="1">
          <mxGeometry x="570" y="320" width="160" height="50" as="geometry" />
        </mxCell>
        <mxCell id="9RzZbeZzAyRBjFit2fkM-6" value="" style="endArrow=none;html=1;rounded=0;exitX=0.5;exitY=1;exitDx=0;exitDy=0;" edge="1" parent="1" source="9RzZbeZzAyRBjFit2fkM-4">
          <mxGeometry width="50" height="50" relative="1" as="geometry">
            <mxPoint x="320" y="510" as="sourcePoint" />
            <mxPoint x="414" y="430" as="targetPoint" />
          </mxGeometry>
        </mxCell>
        <mxCell id="9RzZbeZzAyRBjFit2fkM-7" value="&lt;b&gt;grado superior DAW&lt;/b&gt;" style="rounded=0;whiteSpace=wrap;html=1;" vertex="1" parent="1">
          <mxGeometry x="334" y="430" width="160" height="50" as="geometry" />
        </mxCell>
        <mxCell id="9RzZbeZzAyRBjFit2fkM-8" value="" style="endArrow=none;html=1;rounded=0;exitX=0.5;exitY=1;exitDx=0;exitDy=0;" edge="1" parent="1">
          <mxGeometry width="50" height="50" relative="1" as="geometry">
            <mxPoint x="650" y="370" as="sourcePoint" />
            <mxPoint x="650" y="430" as="targetPoint" />
          </mxGeometry>
        </mxCell>
        <mxCell id="9RzZbeZzAyRBjFit2fkM-9" value="&lt;b&gt;php&lt;/b&gt;" style="rounded=0;whiteSpace=wrap;html=1;" vertex="1" parent="1">
          <mxGeometry x="550" y="430" width="50" height="40" as="geometry" />
        </mxCell>
        <mxCell id="9RzZbeZzAyRBjFit2fkM-10" value="&lt;b&gt;html,css,js&lt;/b&gt;" style="rounded=0;whiteSpace=wrap;html=1;" vertex="1" parent="1">
          <mxGeometry x="620" y="430" width="70" height="40" as="geometry" />
        </mxCell>
        <mxCell id="9RzZbeZzAyRBjFit2fkM-12" value="&lt;b&gt;java&lt;/b&gt;" style="rounded=0;whiteSpace=wrap;html=1;" vertex="1" parent="1">
          <mxGeometry x="710" y="430" width="50" height="40" as="geometry" />
        </mxCell>
        <mxCell id="9RzZbeZzAyRBjFit2fkM-13" value="&lt;b&gt;laravel&lt;/b&gt;" style="rounded=0;whiteSpace=wrap;html=1;" vertex="1" parent="1">
          <mxGeometry x="580" y="495" width="50" height="40" as="geometry" />
        </mxCell>
        <mxCell id="9RzZbeZzAyRBjFit2fkM-14" value="&lt;b&gt;angular&lt;/b&gt;" style="rounded=0;whiteSpace=wrap;html=1;" vertex="1" parent="1">
          <mxGeometry x="680" y="495" width="50" height="40" as="geometry" />
        </mxCell>
        <mxCell id="9RzZbeZzAyRBjFit2fkM-15" value="" style="endArrow=none;html=1;rounded=0;" edge="1" parent="1">
          <mxGeometry width="50" height="50" relative="1" as="geometry">
            <mxPoint x="650" y="400" as="sourcePoint" />
            <mxPoint x="574.58" y="430" as="targetPoint" />
          </mxGeometry>
        </mxCell>
        <mxCell id="9RzZbeZzAyRBjFit2fkM-16" value="" style="endArrow=none;html=1;rounded=0;entryX=0.5;entryY=0;entryDx=0;entryDy=0;" edge="1" parent="1" target="9RzZbeZzAyRBjFit2fkM-12">
          <mxGeometry width="50" height="50" relative="1" as="geometry">
            <mxPoint x="650" y="400" as="sourcePoint" />
            <mxPoint x="584.58" y="440" as="targetPoint" />
          </mxGeometry>
        </mxCell>
        <mxCell id="9RzZbeZzAyRBjFit2fkM-17" value="" style="endArrow=none;html=1;rounded=0;entryX=0.5;entryY=1;entryDx=0;entryDy=0;exitX=0.5;exitY=0;exitDx=0;exitDy=0;" edge="1" parent="1" source="9RzZbeZzAyRBjFit2fkM-13" target="9RzZbeZzAyRBjFit2fkM-9">
          <mxGeometry width="50" height="50" relative="1" as="geometry">
            <mxPoint x="660" y="410" as="sourcePoint" />
            <mxPoint x="584.58" y="440" as="targetPoint" />
          </mxGeometry>
        </mxCell>
        <mxCell id="9RzZbeZzAyRBjFit2fkM-18" value="" style="endArrow=none;html=1;rounded=0;entryX=0.5;entryY=1;entryDx=0;entryDy=0;exitX=0.5;exitY=0;exitDx=0;exitDy=0;" edge="1" parent="1" target="9RzZbeZzAyRBjFit2fkM-10">
          <mxGeometry width="50" height="50" relative="1" as="geometry">
            <mxPoint x="710" y="495" as="sourcePoint" />
            <mxPoint x="680" y="470" as="targetPoint" />
          </mxGeometry>
        </mxCell>
        <mxCell id="9RzZbeZzAyRBjFit2fkM-19" value="" style="endArrow=none;html=1;rounded=0;entryX=0.5;entryY=0;entryDx=0;entryDy=0;" edge="1" parent="1" target="9RzZbeZzAyRBjFit2fkM-3">
          <mxGeometry width="50" height="50" relative="1" as="geometry">
            <mxPoint x="413.41999999999996" y="210" as="sourcePoint" />
            <mxPoint x="338" y="240" as="targetPoint" />
          </mxGeometry>
        </mxCell>
        <mxCell id="9RzZbeZzAyRBjFit2fkM-20" value="" style="endArrow=none;html=1;rounded=0;exitX=0.5;exitY=0;exitDx=0;exitDy=0;" edge="1" parent="1" source="9RzZbeZzAyRBjFit2fkM-5">
          <mxGeometry width="50" height="50" relative="1" as="geometry">
            <mxPoint x="644" y="310" as="sourcePoint" />
            <mxPoint x="414" y="210" as="targetPoint" />
          </mxGeometry>
        </mxCell>
        <mxCell id="9RzZbeZzAyRBjFit2fkM-21" value="" style="endArrow=none;html=1;rounded=0;exitX=0.5;exitY=1;exitDx=0;exitDy=0;entryX=0.5;entryY=0;entryDx=0;entryDy=0;" edge="1" parent="1" source="9RzZbeZzAyRBjFit2fkM-3" target="9RzZbeZzAyRBjFit2fkM-22">
          <mxGeometry width="50" height="50" relative="1" as="geometry">
            <mxPoint x="430" y="500" as="sourcePoint" />
            <mxPoint x="200" y="420" as="targetPoint" />
          </mxGeometry>
        </mxCell>
        <mxCell id="9RzZbeZzAyRBjFit2fkM-22" value="&lt;b&gt;WEB asociaciones&lt;/b&gt;" style="rounded=0;whiteSpace=wrap;html=1;" vertex="1" parent="1">
          <mxGeometry x="200" y="425" width="100" height="50" as="geometry" />
        </mxCell>
        <mxCell id="9RzZbeZzAyRBjFit2fkM-23" value="&lt;b&gt;WEB&lt;/b&gt;&lt;div&gt;&lt;b&gt;videojuegos&lt;/b&gt;&lt;/div&gt;" style="rounded=0;whiteSpace=wrap;html=1;" vertex="1" parent="1">
          <mxGeometry x="80" y="425" width="100" height="50" as="geometry" />
        </mxCell>
        <mxCell id="9RzZbeZzAyRBjFit2fkM-24" value="" style="endArrow=none;html=1;rounded=0;exitX=0.453;exitY=0.986;exitDx=0;exitDy=0;entryX=0.5;entryY=0;entryDx=0;entryDy=0;exitPerimeter=0;" edge="1" parent="1" source="9RzZbeZzAyRBjFit2fkM-3" target="9RzZbeZzAyRBjFit2fkM-23">
          <mxGeometry width="50" height="50" relative="1" as="geometry">
            <mxPoint x="210" y="380" as="sourcePoint" />
            <mxPoint x="260" y="435" as="targetPoint" />
          </mxGeometry>
        </mxCell>
      </root>
    </mxGraphModel>
  </diagram>
</mxfile>
